<svg xmlns="http://www.w3.org/2000/svg" width="9.83" height="12" viewBox="0 0 9.83 12">
  <path id="Bold-icon" d="M9.716,7.768a3.268,3.268,0,0,0,.723-1.747,3.431,3.431,0,0,0-3.4-3.771H1.694a.429.429,0,0,0-.429.429V3.964a.429.429,0,0,0,.429.429h.854v7.714H1.694a.429.429,0,0,0-.429.429v1.286a.429.429,0,0,0,.429.429H7.3a3.746,3.746,0,0,0,3.777-3.279A3.629,3.629,0,0,0,9.716,7.768ZM4.685,4.393H7.036a1.286,1.286,0,0,1,0,2.571H4.685Zm2.351,7.714H4.685v-3H7.036a1.5,1.5,0,0,1,0,3Z" transform="translate(-1.266 -2.25)" fill="#1a1818"/>
</svg>
