<svg xmlns="http://www.w3.org/2000/svg" width="14" height="9.502" viewBox="0 0 14 9.502">
  <g id="Connections-Icon" transform="translate(-287 -117)">
    <path id="Path_85" data-name="Path 85" d="M2.9,7.217A2.245,2.245,0,0,1,5.118,5a2.217,2.217,0,0,1,0,4.434A2.245,2.245,0,0,1,2.9,7.217ZM5.118,10.7A4.4,4.4,0,0,0,1,13.235V14.5H9.235V13.235A4.4,4.4,0,0,0,5.118,10.7Z" transform="translate(286 112)" fill="#ba9950"/>
    <path id="Path_84" data-name="Path 84" d="M15.181,14a4.647,4.647,0,0,0-2.281.57,6.156,6.156,0,0,1,1.33,1.71l.063.127V17.8h5.068V16.534A4.65,4.65,0,0,0,15.181,14Z" transform="translate(281.638 108.701)" fill="#ba9950"/>
    <circle id="Ellipse_8" data-name="Ellipse 8" cx="2.217" cy="2.217" r="2.217" transform="translate(294.602 117)" fill="#ba9950"/>
  </g>
</svg>
