<svg xmlns="http://www.w3.org/2000/svg" width="15" height="12" viewBox="0 0 15 12">
  <g id="Email-icon" transform="translate(-2 -4)">
    <path id="Path_100" data-name="Path 100" d="M10.235,10.045a.75.75,0,0,1-1,0L2.87,4.262A1.5,1.5,0,0,1,3.718,4h12a1.5,1.5,0,0,1,.847.262Z" transform="translate(-0.217)" fill="#ba9950"/>
    <path id="Path_101" data-name="Path 101" d="M17,6.26v8.055a2.25,2.25,0,0,1-2.25,2.25H4.25A2.25,2.25,0,0,1,2,14.315V6.26L8.51,12.2a1.5,1.5,0,0,0,1.988-.015Z" transform="translate(0 -0.565)" fill="#ba9950"/>
  </g>
</svg>
