<svg xmlns="http://www.w3.org/2000/svg" width="12" height="12.896" viewBox="0 0 12 12.896">
  <path id="Icon-settings" d="M14.281,9.386l-.242-.14a.921.921,0,0,1,0-1.6l.242-.14a1.381,1.381,0,0,0,.506-1.887l-.461-.8a1.383,1.383,0,0,0-1.887-.506l-.242.14a.921.921,0,0,1-1.382-.8v-.28A1.383,1.383,0,0,0,9.433,2H8.512A1.383,1.383,0,0,0,7.13,3.382v.28a.921.921,0,0,1-1.382.8l-.242-.14a1.384,1.384,0,0,0-1.888.506l-.461.8A1.381,1.381,0,0,0,3.663,7.51l.243.14a.921.921,0,0,1,0,1.6l-.242.14a1.381,1.381,0,0,0-.506,1.887l.461.8a1.383,1.383,0,0,0,1.887.506l.242-.14a.921.921,0,0,1,1.382.8v.28A1.383,1.383,0,0,0,8.512,14.9h.921a1.383,1.383,0,0,0,1.382-1.382v-.28a.921.921,0,0,1,1.382-.8l.242.14a1.384,1.384,0,0,0,1.887-.506l.461-.8A1.381,1.381,0,0,0,14.281,9.386ZM8.972,10.751a2.3,2.3,0,1,1,2.3-2.3A2.305,2.305,0,0,1,8.972,10.751Z" transform="translate(-2.972 -2)" fill="#ba9950"/>
</svg>
