<svg xmlns="http://www.w3.org/2000/svg" width="8.182" height="10" viewBox="0 0 8.182 10">
  <g id="lessons-Icon" transform="translate(-3 -1)" opacity="0.5">
    <path id="Path_86" data-name="Path 86" d="M14,3.824V2.01c.027.023.055.05.077.073L16.65,4.655c.023.023.05.05.073.077H14.909A.912.912,0,0,1,14,3.824Z" transform="translate(-6 -0.551)" fill="#1a1818"/>
    <path id="Path_87" data-name="Path 87" d="M11.155,5.091H8.909A1.818,1.818,0,0,1,7.091,3.273V1.027A1.674,1.674,0,0,0,6.791,1H4.364A1.364,1.364,0,0,0,3,2.364V9.636A1.364,1.364,0,0,0,4.364,11H9.818a1.364,1.364,0,0,0,1.364-1.364V5.391A1.674,1.674,0,0,0,11.155,5.091Z" fill="#1a1818"/>
  </g>
</svg>
