<svg xmlns="http://www.w3.org/2000/svg" width="13.091" height="16" viewBox="0 0 13.091 16">
  <g id="Lessons" transform="translate(-3 -1)">
    <path id="Path_86" data-name="Path 86" d="M14,4.912V2.01c.044.036.087.08.124.116L18.24,6.243c.036.036.08.08.116.124h-2.9A1.459,1.459,0,0,1,14,4.912Z" transform="translate(-3 -0.275)" fill="#1a1818"/>
    <path id="Path_87" data-name="Path 87" d="M16.047,7.545H12.455A2.909,2.909,0,0,1,9.545,4.636V1.044A2.679,2.679,0,0,0,9.065,1H5.182A2.182,2.182,0,0,0,3,3.182V14.818A2.182,2.182,0,0,0,5.182,17h8.727a2.182,2.182,0,0,0,2.182-2.182V8.025A2.679,2.679,0,0,0,16.047,7.545Z" fill="#1a1818"/>
  </g>
</svg>
