<svg xmlns="http://www.w3.org/2000/svg" width="14" height="14" viewBox="0 0 14 14">
  <g id="Logout-icon" transform="translate(0 0)" opacity="0.5">
    <path id="Path_102" data-name="Path 102" d="M2.987,28.376H9.625a.875.875,0,0,0,0-1.75H2.987l1.131-1.131a.875.875,0,1,0-1.237-1.237L.256,26.882a.875.875,0,0,0,0,1.237l2.625,2.625a.875.875,0,0,0,1.237-1.237Z" transform="translate(0 -20.501)" fill="#f7f7f7"/>
    <path id="Path_103" data-name="Path 103" d="M43.875,0h-7A.875.875,0,0,0,36,.875v1.75a.875.875,0,0,0,1.75,0V1.75H43v10.5H37.75v-.875a.875.875,0,0,0-1.75,0v1.75a.875.875,0,0,0,.875.875h7a.875.875,0,0,0,.875-.875V.875A.875.875,0,0,0,43.875,0Z" transform="translate(-30.75 0)" fill="#f7f7f7"/>
  </g>
</svg>
