<svg xmlns="http://www.w3.org/2000/svg" width="16" height="10.86" viewBox="0 0 16 10.86">
  <g id="people_-Icon" data-name="people -Icon" transform="translate(-287 -117)" opacity="0.5">
    <path id="Path_85" data-name="Path 85" d="M3.172,7.534A2.565,2.565,0,0,1,5.706,5a2.534,2.534,0,0,1,0,5.068A2.565,2.565,0,0,1,3.172,7.534Zm2.534,3.982A5.031,5.031,0,0,0,1,14.412V15.86h9.412V14.412A5.031,5.031,0,0,0,5.706,11.516Z" transform="translate(286 112)" fill="#ba9950"/>
    <path id="Path_84" data-name="Path 84" d="M15.506,14a5.311,5.311,0,0,0-2.606.652,7.036,7.036,0,0,1,1.52,1.955l.072.145v1.593h5.792V16.9A5.314,5.314,0,0,0,15.506,14Z" transform="translate(282.715 109.516)" fill="#ba9950"/>
    <circle id="Ellipse_8" data-name="Ellipse 8" cx="2.534" cy="2.534" r="2.534" transform="translate(295.688 117)" fill="#ba9950"/>
  </g>
</svg>
