<svg xmlns="http://www.w3.org/2000/svg" width="24" height="16.29" viewBox="0 0 24 16.29">
  <g id="people" transform="translate(-287 -117)">
    <path id="Path_85" data-name="Path 85" d="M4.258,8.8A3.848,3.848,0,0,1,8.059,5a3.848,3.848,0,0,1,3.8,3.8,3.848,3.848,0,0,1-3.8,3.8A3.848,3.848,0,0,1,4.258,8.8Zm3.8,5.973A7.547,7.547,0,0,0,1,19.118V21.29H15.118V19.118A7.547,7.547,0,0,0,8.059,14.774Z" transform="translate(286 112)" fill="#1a1818"/>
    <path id="Path_84" data-name="Path 84" d="M16.81,14a7.967,7.967,0,0,0-3.91.977,10.554,10.554,0,0,1,2.281,2.932l.109.217v2.389h8.688V18.344A7.971,7.971,0,0,0,16.81,14Z" transform="translate(287.023 112.774)" fill="#1a1818"/>
    <circle id="Ellipse_8" data-name="Ellipse 8" cx="3.801" cy="3.801" r="3.801" transform="translate(300.032 117)" fill="#1a1818"/>
  </g>
</svg>
