<svg xmlns="http://www.w3.org/2000/svg" width="38" height="38" viewBox="0 0 38 38">
  <g id="Points-star" transform="translate(-968 -233.444)">
    <rect id="Points-star-2" data-name="Points-star" width="38" height="38" rx="5" transform="translate(968 233.444)" fill="#ba9950"/>
    <path id="Icon" d="M8.437.521,6.524,4.4l-4.28.624a.938.938,0,0,0-.518,1.6l3.1,3.017L4.089,13.9a.937.937,0,0,0,1.359.987l3.829-2.012,3.829,2.012a.938.938,0,0,0,1.359-.987L13.733,9.64l3.1-3.017a.938.938,0,0,0-.518-1.6L12.031,4.4,10.118.521a.938.938,0,0,0-1.681,0Z" transform="translate(977.75 244.443)" fill="#fff"/>
  </g>
</svg>
