<svg xmlns="http://www.w3.org/2000/svg" width="15" height="15.693" viewBox="0 0 15 15.693">
  <path id="Verified-icon" d="M14.918,9.012a1.963,1.963,0,0,1,0-2.3l.5-.687a.654.654,0,0,0,.092-.589.666.666,0,0,0-.419-.419l-.8-.262a1.955,1.955,0,0,1-1.355-1.865V2.036a.654.654,0,0,0-.857-.622l-.811.262A1.963,1.963,0,0,1,9.067.962L8.57.275a.678.678,0,0,0-1.06,0l-.5.687a1.963,1.963,0,0,1-2.192.713l-.811-.262a.654.654,0,0,0-.857.622v.851A1.955,1.955,0,0,1,1.8,4.752l-.8.262a.666.666,0,0,0-.419.419.654.654,0,0,0,.092.589l.5.687a1.963,1.963,0,0,1,0,2.3l-.5.687a.654.654,0,0,0-.092.589.666.666,0,0,0,.419.419l.8.262a1.955,1.955,0,0,1,1.355,1.865v.851a.654.654,0,0,0,.857.622l.8-.262a1.959,1.959,0,0,1,2.2.713l.5.687a.658.658,0,0,0,1.06,0l.5-.687a1.963,1.963,0,0,1,2.2-.713l.8.262a.654.654,0,0,0,.857-.622v-.851a1.955,1.955,0,0,1,1.355-1.865l.8-.262a.666.666,0,0,0,.419-.419.654.654,0,0,0-.092-.589Zm-3.8-2L7.85,10.286a.654.654,0,0,1-.925,0L4.961,8.323A.654.654,0,1,1,5.887,7.4l1.5,1.5,2.809-2.809a.654.654,0,1,1,.925.925Z" transform="translate(-0.54 -0.02)" fill="#ba9950"/>
</svg>
