<svg xmlns="http://www.w3.org/2000/svg" width="468" height="179.403" viewBox="0 0 468 179.403">
  <g id="Delete-Account-img" transform="translate(-584.5 -182.097)">
    <path id="Shape" d="M889.9,346.87H606.849s-1.708-29.659,21.032-39.6,63.52-12.244,84.576-44.486,107.793-48.5,142.855-15.092,32.758,79.881,69.25,76.389S974.47,346.87,974.47,346.87Z" transform="translate(30.355 13.181)" fill="#f8f7f7"/>
    <line id="Line_3" data-name="Line 3" x2="426" transform="translate(608.5 360.5)" fill="none" stroke="#f8f7f7" stroke-linecap="round" stroke-width="2"/>
    <line id="Line_4" data-name="Line 4" x2="15" transform="translate(585.5 360.5)" fill="none" stroke="#f8f7f7" stroke-linecap="round" stroke-width="2"/>
    <line id="Line_5" data-name="Line 5" x2="10" transform="translate(1041.5 360.5)" fill="none" stroke="#f8f7f7" stroke-linecap="round" stroke-width="2"/>
    <path id="Cloud" d="M42.677,19.814a14.645,14.645,0,0,0-26.606-6.747,6.921,6.921,0,0,0-2.626-.517,7.231,7.231,0,0,0-6.971,7.167A9.537,9.537,0,0,0,0,28.767a9.182,9.182,0,0,0,8.875,9.227h32.25a9.188,9.188,0,0,0,1.552-18.18Z" transform="translate(911.9 190.969)" fill="#f8f7f7"/>
    <path id="Cloud-2" data-name="Cloud" d="M85.354,32.878A29.29,29.29,0,0,0,32.142,19.384a13.842,13.842,0,0,0-5.253-1.035c-7.635,0-13.825,6.717-13.943,14.333A19.075,19.075,0,0,0,0,50.784c0,9.8,7.948,18.453,17.75,18.453h64.5c9.8,0,17.75-8.651,17.75-18.453A18.263,18.263,0,0,0,85.354,32.878Z" transform="translate(646.9 175.347)" fill="#f8f7f7"/>
    <g id="Person" transform="translate(784 221.171)">
      <path id="Path_104" data-name="Path 104" d="M14.708,359.755l1.306-11.6,7.286.607-2.206,10.811Z" transform="translate(-9.502 -224.908)" fill="#eda38f"/>
      <path id="Path_105" data-name="Path 105" d="M58.8,52.728a54.761,54.761,0,0,1-7.7.863l.216,2.883L25.614,53.353l-1.755-.212L12.9,51.806s5.392-11.092,21.758-12.52c.1-.011,5.511.613,8.288.182,7.287-1.132,12.494,3.046,13.747.569,1.606-3.176-5.073-6.331-5.073-6.331l2.406-4.687s8.957,1.886,12.408,7.22C68.79,39.873,71.193,49.2,58.8,52.728" transform="translate(-8.335 -18.747)" fill="#1a1818"/>
      <path id="Path_106" data-name="Path 106" d="M74.3,6.693S69.786,6,70.615,13.586c.586,5.362,2.6,6.554,2.6,6.554l.547-4.527.75-3.046,1.512-4.212Z" transform="translate(-45.552 -4.313)" fill="#302824"/>
      <path id="Path_107" data-name="Path 107" d="M82.591,41.886,82.011,36.6,76.28,31.583l-1.9,9.534s6.315,5.665,8.211.769" transform="translate(-48.05 -20.403)" fill="#eda38f"/>
      <path id="Path_108" data-name="Path 108" d="M88.406,49.759a5.267,5.267,0,0,1-4.755-3.554l4.458.822Z" transform="translate(-54.039 -29.849)" fill="#302824"/>
      <path id="Path_109" data-name="Path 109" d="M90.886,17.572c-1.073,4.426-2.1,10.733-6.592,9.63C79.379,26,78.764,21.066,79,17.462c.116-1.809,1.675-4.708,5.931-4.346,5.318.453,6.393,2.668,5.96,4.456" transform="translate(-51.005 -8.453)" fill="#eda38f"/>
      <path id="Path_110" data-name="Path 110" d="M77.1,27.733a1.258,1.258,0,0,0-1.641-1.439,1.376,1.376,0,0,0-.719.661c-.759,1.418.2,2.834,1.982,2.837Z" transform="translate(-48.112 -16.933)" fill="#eda38f"/>
      <path id="Path_111" data-name="Path 111" d="M77.264,2.38c4.845-5.417,12.577-.458,12.458,3.693a5.216,5.216,0,0,1-1.49,3.8,1.717,1.717,0,0,0-.6-2.13c-1.606,3.9-8.245,1.883-8.245,1.883a3.461,3.461,0,0,0-.883,2.181c-1.522-.511-1.09-1.7-1.969-2.179a1.046,1.046,0,0,0-1.4.393c-.367.742,2.126-7.64,2.126-7.64" transform="translate(-48.516 0)" fill="#302824"/>
      <path id="Path_112" data-name="Path 112" d="M90.483,24.889a5.044,5.044,0,0,0,2.584-.359,4.582,4.582,0,0,0,2.426-2.7l-.292-.086a4.354,4.354,0,0,1-2.26,2.507c-1.5.661-3.445.42-5.772-.718l-.134.274a10.37,10.37,0,0,0,3.448,1.08" transform="translate(-56.225 -14.049)" fill="#302824"/>
      <path id="Path_113" data-name="Path 113" d="M92.463,360.748l.5-11.685h7.3l-1.436,11.473Z" transform="translate(-59.732 -225.497)" fill="#eda38f"/>
      <path id="Path_114" data-name="Path 114" d="M82.123,226.007s5.1-26.931,4.635-36.7c-.445-9.455-6.926-39.149-6.926-39.149l-21.776-.627,10.263,43.757L66.493,225.5Z" transform="translate(-37.505 -96.596)" fill="#ba9950"/>
      <path id="Path_115" data-name="Path 115" d="M82.978,276.922l.294,2.588-2.627-.085L82.472,247.2l-2.51-10.694,2.835-3.515,2.531,12.471Z" transform="translate(-51.656 -150.516)" opacity="0.2"/>
      <path id="Path_116" data-name="Path 116" d="M42.021,158.625l-1.189,4.329-.269.973L22.278,230.44,6,229.916l12.935-63.524.722-3.533,1.058-5.2Z" transform="translate(-3.878 -101.846)" fill="#ba9950"/>
      <path id="Path_117" data-name="Path 117" d="M96.469,356.826s-12.085,2.2-18.059-.578L78.3,359.7c5.629,1.674,11.276,1.631,18.059.578Z" transform="translate(-50.585 -230.138)" fill="#ba9950"/>
      <path id="Path_118" data-name="Path 118" d="M50.225,108.7c.007-.079.771-7.915,5.176-13.565l-.323-.275c-4.487,5.754-5.261,13.719-5.269,13.8Z" transform="translate(-32.178 -61.279)" fill="#fff"/>
      <path id="Path_119" data-name="Path 119" d="M66.709,147.377l-1.182,5.9-.138.1a29,29,0,0,1-4.322,2.524,32.459,32.459,0,0,1-21.328,1.961l-.3.5.722-3.533q-1.216-.34-2.421-.75l.156-1.858.584-6.995Z" transform="translate(-24.382 -93.816)" opacity="0.2"/>
      <path id="Path_120" data-name="Path 120" d="M68.872,95.18a33.466,33.466,0,0,1-3.483,1.862,32.521,32.521,0,0,1-4.053,1.55,37.439,37.439,0,0,1-21.172-.1q-1.216-.34-2.421-.75l.156-1.858.584-6.995.871-10.4.552-6.62L40.79,62s9.838-3.979,9.915-3.979c5.558,4.223,8.291.181,8.291.181l7.979,11.82Z" transform="translate(-24.382 -37.484)" fill="#1a1818"/>
      <path id="Path_121" data-name="Path 121" d="M41.828,112.545,38.7,131.2l-.513-.1,1.455-17.392Z" transform="translate(-24.666 -72.704)" fill="#f8f7f7" opacity="0.5"/>
      <path id="Path_122" data-name="Path 122" d="M32.057,169.6a7.8,7.8,0,0,0,1.56,1.626c.381.15,2.547.693,2.39,1.142-.164.47-1.577-.214-1.643.179-.041.242,2.705,1.629,2.307,2.078-.261.295-1.81-.772-1.888-.569s2.11,1.1,1.745,1.56c-.383.478-2.293-1.321-2.456-1.091-.081.114,2.378,1.619,2.07,1.983-.412.487-2.173-1.287-2.38-1.081-.1.1.632.617,1.03.979.221.2.094.411-.1.361-2.034-.517-4.093-3.548-4.4-3.734-.453-.276-1.108-.541-1.531-.825Z" transform="translate(-18.581 -109.56)" fill="#eda38f"/>
      <path id="Path_123" data-name="Path 123" d="M115.557,25.866l-1.685,3.281a4.377,4.377,0,0,0-1.335-.729c-.409-.041-2.641.015-2.607-.461.03-.5,1.573-.216,1.536-.61-.026-.246-3.043-.848-2.778-1.388.171-.353,1.949.261,1.971.045s-2.328-.5-2.1-1.038c.242-.561,2.563.663,2.656.395.048-.13-2.723-.926-2.522-1.358.268-.58,2.436.662,2.581.405.071-.123-.773-.424-1.254-.666-.268-.137-.2-.371,0-.375,2.1-.045,4.891,2.325,5.237,2.425.093.026.194.052.3.074" transform="translate(-70.121 -15.095)" fill="#eda38f"/>
      <path id="Path_124" data-name="Path 124" d="M15.435,102.138s-9.116-13.675,1.61-21.1l6.7-16.922,0-.114c-7.135-.29-14.96,3.8-19.331,9.775A22.738,22.738,0,0,0,10.877,106.7Z" transform="translate(0 -41.334)" fill="#1a1818"/>
      <path id="Path_125" data-name="Path 125" d="M120.886,84.391s8.912,2.086,15.665-2.994l-.057.172c-1.394,2.02-3.877,3.824-7.975,4.994a54.143,54.143,0,0,1-7.693.863Z" transform="translate(-78.054 -52.583)" fill="#f8f7f7" opacity="0.5"/>
      <rect id="Rectangle_53" data-name="Rectangle 53" width="0.362" height="27.684" transform="translate(42.414 30.09) rotate(-3.929)" fill="#302824"/>
      <path id="Path_126" data-name="Path 126" d="M51.839,261.892l-.349-.1,15.184-55.525.349.1Z" transform="translate(-33.264 -133.251)" fill="#302824"/>
      <path id="Path_127" data-name="Path 127" d="M22.148,356.091s-12.085,2.2-18.059-.578l-.106,3.449c5.629,1.674,11.276,1.631,18.059.578Z" transform="translate(-2.573 -229.663)" fill="#ba9950"/>
      <path id="Path_128" data-name="Path 128" d="M11.964,356.807a17.565,17.565,0,0,1-7.9-1.429l.152-.328c5.856,2.718,17.825.586,17.952.564l.061.357a73.073,73.073,0,0,1-10.269.837" transform="translate(-2.628 -229.363)" fill="#302824"/>
      <path id="Path_129" data-name="Path 129" d="M86.639,357.542a19.183,19.183,0,0,1-8.249-1.429l.152-.328c5.854,2.717,17.824.585,17.952.564l.061.357a65.53,65.53,0,0,1-9.916.837" transform="translate(-50.641 -229.839)" fill="#302824"/>
      <path id="Path_130" data-name="Path 130" d="M11.287,380.881H28.009a1,1,0,0,0,1-1.073c0-.007,0-.014,0-.021-.012-.128-.027-.259-.046-.391a2.609,2.609,0,0,0-.387-1.168c-.793-1.052-2.332-1.532-5.075-2.618a21.99,21.99,0,0,1-3.826-2.019.528.528,0,0,0-.661.07c-3.307,3.233-5.338,2.545-5.945,1.211-.464-1.017-1.122-.8-1.3-.507-.557.932-.863,3.663-.986,5.032-.016.147-.027.282-.035.391l-.031.41a.585.585,0,0,0,.572.685" transform="translate(-6.917 -241.285)" fill="#1a1818"/>
      <path id="Path_131" data-name="Path 131" d="M43.951,381.093a1.786,1.786,0,0,0,1.009-1.815l-.287.044a1.47,1.47,0,0,1-.849,1.509Z" transform="translate(-28.312 -245.016)" fill="#302824"/>
      <path id="Path_132" data-name="Path 132" d="M48.068,382.646a1.8,1.8,0,0,0,.97-1.726l-.288.035a1.518,1.518,0,0,1-.825,1.439Z" transform="translate(-30.96 -246.076)" fill="#302824"/>
      <path id="Path_133" data-name="Path 133" d="M17.876,381.71a5.358,5.358,0,0,0,2.148-.519l-.133-.258c-.025.013-2.563,1.289-3.867-.335l-.226.181a2.544,2.544,0,0,0,2.078.931" transform="translate(-10.206 -245.868)" fill="#302824"/>
      <path id="Path_134" data-name="Path 134" d="M88.2,380.881h16.721a1,1,0,0,0,1-1.073c0-.007,0-.014,0-.021-.012-.128-.027-.259-.046-.391a2.609,2.609,0,0,0-.387-1.168c-.793-1.052-2.332-1.532-5.075-2.618a21.991,21.991,0,0,1-3.826-2.019.528.528,0,0,0-.661.07c-3.307,3.233-5.338,2.545-5.945,1.211-.464-1.017-1.121-.8-1.3-.507-.557.932-.863,3.663-.986,5.032-.016.147-.027.282-.035.391l-.031.41a.585.585,0,0,0,.572.685" transform="translate(-56.6 -241.285)" fill="#1a1818"/>
      <path id="Path_135" data-name="Path 135" d="M120.859,381.093a1.786,1.786,0,0,0,1.009-1.815l-.287.044a1.47,1.47,0,0,1-.849,1.509Z" transform="translate(-77.995 -245.016)" fill="#302824"/>
      <path id="Path_136" data-name="Path 136" d="M124.975,382.646a1.8,1.8,0,0,0,.97-1.726l-.288.035a1.518,1.518,0,0,1-.825,1.439Z" transform="translate(-80.643 -246.076)" fill="#302824"/>
      <path id="Path_137" data-name="Path 137" d="M94.783,381.71a5.358,5.358,0,0,0,2.148-.519l-.133-.258c-.025.013-2.563,1.289-3.867-.335l-.226.181a2.544,2.544,0,0,0,2.078.931" transform="translate(-59.888 -245.868)" fill="#302824"/>
      <path id="Path_138" data-name="Path 138" d="M78.135,62.732c-2.783,0-5.363-2.334-5.478-2.44l.239-.261c.029.027,2.943,2.664,5.774,2.314a4.441,4.441,0,0,0,3.178-2.161l.3.2A4.778,4.778,0,0,1,78.712,62.7a4.71,4.71,0,0,1-.576.035" transform="translate(-46.937 -38.78)" fill="#302824"/>
      <path id="Path_139" data-name="Path 139" d="M48.429,69.892c-.459-3.559-3.008-4.164-3.116-4.188l.076-.346c.029.006,2.9.673,3.392,4.489Z" transform="translate(-29.273 -42.221)" fill="#302824"/>
      <path id="Path_140" data-name="Path 140" d="M3.519,109.883A18.049,18.049,0,0,1,7.289,95.146l.273.225a17.685,17.685,0,0,0-3.7,14.426Z" transform="translate(-2.073 -61.465)" fill="#302824"/>
      <path id="Path_141" data-name="Path 141" d="M42.173,110.86l-.29-.2c.091-.13,2.277-3.192,5.456-3.437l.027.353c-3.015.232-5.173,3.257-5.194,3.288" transform="translate(-27.057 -69.265)" fill="#302824"/>
      <path id="Path_142" data-name="Path 142" d="M63.981,163.31a37.1,37.1,0,0,1-6.4-.508l.069-.347c.115.023,11.623,2.219,21.215-2.755l.163.315a33.13,33.13,0,0,1-15.043,3.3" transform="translate(-37.196 -103.167)" fill="#302824"/>
      <path id="Path_143" data-name="Path 143" d="M131.222,62.811a4.653,4.653,0,0,1-2.319-.495l.185-.3c.016.01,1.549.911,4.439.1l.1.341a8.893,8.893,0,0,1-2.4.355" transform="translate(-83.272 -40.062)" fill="#302824"/>
      <path id="Path_144" data-name="Path 144" d="M54.281,274.436h-.023l.01-.354a9.276,9.276,0,0,0,7.32-4.26l.293.2a9.644,9.644,0,0,1-7.6,4.416" transform="translate(-35.051 -174.306)" fill="#302824"/>
      <path id="Path_145" data-name="Path 145" d="M124.7,270.6l-.1-.339a9.233,9.233,0,0,0,5.075-4.128l.317.158A9.421,9.421,0,0,1,124.7,270.6" transform="translate(-80.489 -171.923)" fill="#302824"/>
      <path id="Path_146" data-name="Path 146" d="M87.965,151.409l-.02-.353c.063,0,6.358-.408,10-4.52l.265.235c-3.741,4.224-10.181,4.635-10.245,4.639" transform="translate(-56.813 -94.663)" fill="#302824"/>
    </g>
    <rect id="Rectangle_54" data-name="Rectangle 54" width="2" height="15" rx="1" transform="translate(665 249)" fill="#f8f7f7"/>
    <rect id="Rectangle_55" data-name="Rectangle 55" width="2" height="15" rx="1" transform="translate(673 257)" fill="#f8f7f7"/>
    <rect id="Rectangle_56" data-name="Rectangle 56" width="2" height="15" rx="1" transform="translate(695 247)" fill="#f8f7f7"/>
    <rect id="Rectangle_57" data-name="Rectangle 57" width="2" height="15" rx="1" transform="translate(684 262)" fill="#f8f7f7"/>
    <rect id="Rectangle_58" data-name="Rectangle 58" width="2" height="15" rx="1" transform="translate(704 275)" fill="#f8f7f7"/>
    <rect id="Rectangle_59" data-name="Rectangle 59" width="2" height="15" rx="1" transform="translate(717 253)" fill="#f8f7f7"/>
    <rect id="Rectangle_60" data-name="Rectangle 60" width="2" height="15" rx="1" transform="translate(726 267)" fill="#f8f7f7"/>
    <rect id="Rectangle_61" data-name="Rectangle 61" width="2" height="15" rx="1" transform="translate(922 237)" fill="#f8f7f7"/>
    <rect id="Rectangle_62" data-name="Rectangle 62" width="2" height="15" rx="1" transform="translate(936 232)" fill="#f8f7f7"/>
    <rect id="Rectangle_63" data-name="Rectangle 63" width="2" height="15" rx="1" transform="translate(931 256)" fill="#f8f7f7"/>
    <rect id="Rectangle_64" data-name="Rectangle 64" width="2" height="15" rx="1" transform="translate(951 247)" fill="#f8f7f7"/>
    <rect id="Rectangle_65" data-name="Rectangle 65" width="2" height="15" rx="1" transform="translate(959 234)" fill="#f8f7f7"/>
    <rect id="Rectangle_66" data-name="Rectangle 66" width="2" height="15" rx="1" transform="translate(944 269)" fill="#f8f7f7"/>
    <rect id="Rectangle_67" data-name="Rectangle 67" width="2" height="15" rx="1" transform="translate(925 290)" fill="#f8f7f7"/>
    <rect id="Rectangle_68" data-name="Rectangle 68" width="2" height="15" rx="1" transform="translate(953 302)" fill="#f8f7f7"/>
  </g>
</svg>
