<svg xmlns="http://www.w3.org/2000/svg" width="468" height="151" viewBox="0 0 468 151">
  <g id="discover-groups" transform="translate(-584.5 -210.5)">
    <path id="Shape" d="M889.9,346.87H606.849s-1.708-29.659,21.032-39.6,63.52-12.244,84.576-44.486,107.793-48.5,142.855-15.092,32.758,79.881,69.25,76.389S974.47,346.87,974.47,346.87Z" transform="translate(30.355 13.181)" fill="#f8f7f7"/>
    <line id="Line_3" data-name="Line 3" x2="426" transform="translate(608.5 360.5)" fill="none" stroke="#f8f7f7" stroke-linecap="round" stroke-width="2"/>
    <line id="Line_4" data-name="Line 4" x2="15" transform="translate(585.5 360.5)" fill="none" stroke="#f8f7f7" stroke-linecap="round" stroke-width="2"/>
    <line id="Line_5" data-name="Line 5" x2="10" transform="translate(1041.5 360.5)" fill="none" stroke="#f8f7f7" stroke-linecap="round" stroke-width="2"/>
    <g id="Person" transform="translate(783.5 210.5)">
      <path id="Path_147" data-name="Path 147" d="M272.418,168.745s.517-1.162.851-1.712,1.764-2.163,2.008-1.8,1.217,2.822.7,3.51.034,1.885-2.538,2.609Z" transform="translate(-220.315 -133.589)" fill="#ffb27d"/>
      <path id="Path_148" data-name="Path 148" d="M122.986,145.447s13.165,10.99,18.3,9.972a101.271,101.271,0,0,0,10.175-2.908l1.232,3.151s-5.525,7.495-11.285,7.544a32.813,32.813,0,0,1-15.656-3.9Z" transform="translate(-99.463 -117.629)" fill="#1a1818"/>
      <path id="Path_168" data-name="Path 168" d="M343.152,79.411a26.94,26.94,0,1,1-1.161-38.079,26.828,26.828,0,0,1,1.161,38.079" transform="translate(-239.865 -27.509)" fill="#e4ebf7"/>
      <path id="Path_149" data-name="Path 149" d="M2.267,743.122s.382,6.165,1.575,6.254c.159.012,6.05.012,6.05.012l7.52-.044a2.44,2.44,0,0,0-2.247-2.2c-2.2-.383-5.877-1.928-7.209-4.833-1.4-3.056-5.688.807-5.688.807" transform="translate(-1.833 -599.387)" fill="#1a1818"/>
      <path id="Path_150" data-name="Path 150" d="M0,431.905a15.677,15.677,0,0,0,4.071.765,14.947,14.947,0,0,0,3.8-.542,104.027,104.027,0,0,1,2.8-13.333c1.242-4.807,3.015-10.987,5.538-18.667,6.975-21.225,9.1-33.641,9.29-34.817.01-.062.015-.093.015-.093l-.023-.011L4.045,355.792s2.651,29.253-.731,40.48a47.269,47.269,0,0,0-1.228,5.379C-.049,413.848,0,431.905,0,431.905" transform="translate(0 -287.743)" fill="#ba9950"/>
      <path id="Path_151" data-name="Path 151" d="M24.595,418.8c1.242-4.807,3.015-10.987,5.538-18.667,6.976-21.225,9.1-33.641,9.29-34.817,0-.035,0-.068-.008-.1L17.97,355.793s2.651,29.253-.731,40.481c-.474,1.569,7.356,22.522,7.356,22.522" transform="translate(-13.924 -287.744)" fill="#8e7439"/>
      <path id="Path_152" data-name="Path 152" d="M89.841,743.122s.382,6.165,1.575,6.254c.159.012,6.05.012,6.05.012l7.52-.044a2.44,2.44,0,0,0-2.247-2.2c-2.2-.383-5.877-1.928-7.209-4.833-1.4-3.056-5.688.807-5.688.807" transform="translate(-72.657 -599.387)" fill="#1a1818"/>
      <path id="Path_153" data-name="Path 153" d="M57,359.4a305.292,305.292,0,0,1-3,42.231c-3.28,23.274-2.168,33.154-2.168,33.154a22.357,22.357,0,0,1-3.163.8,14.353,14.353,0,0,1-4.692-.543s-4.694-23.283-3.348-34.933S34.2,360.135,34.2,360.135Z" transform="translate(-27.658 -290.658)" fill="#ba9950"/>
      <path id="Path_154" data-name="Path 154" d="M73.907,87.842l4.186,2.745,3.813-1.078c.7-.994.882-2.911.892-4.572a28.411,28.411,0,0,0-.15-3.044L77,79.4l-2.107-.929c.006.033.164,1.73.186,1.978a14.418,14.418,0,0,1-1.173,7.392" transform="translate(-59.771 -63.464)" fill="#ffb27d"/>
      <path id="Path_155" data-name="Path 155" d="M42.161,170.37c-5.211,5.031-24.93,4.185-26.145-1.358s1.325-47.183,10.226-49.8c1.847-.543,11.721,2.648,11.721,2.648a62.618,62.618,0,0,1,2.566,9.214c.2,1,.773,11.646,1.2,21.6.2,4.656.371,9.163.458,12.463a36.014,36.014,0,0,1-.029,5.232" transform="translate(-12.723 -96.362)" fill="#453f3f"/>
      <path id="Path_156" data-name="Path 156" d="M81.566,84.453c1.146,1.937,5.166,3.632,7.3,4.41a28.411,28.411,0,0,0-.15-3.044l-5.648-2.493c-1.248-.016-2.009.262-1.5,1.127" transform="translate(-65.835 -67.388)" fill="#fca56b"/>
      <path id="Path_157" data-name="Path 157" d="M77.087,31.232s-9.1,2.839-10.78-2.856-3.987-9.163,1.752-11.216,7.514-.215,8.538,1.549,2.815,11.637.491,12.522" transform="translate(-52.079 -13.146)" fill="#ffb27d"/>
      <path id="Path_158" data-name="Path 158" d="M59.5,5.015s-.58,6.626-1.951,6.339-2.879-.9-2.678,1.094-1.333,5.421-3.308,5.413c-4.238-.017-8.842-10.892-7.682-12.954,3.347-5.95,20.458-7.151,15.619.107" transform="translate(-35.339 0)" fill="#1a1818"/>
      <path id="Path_159" data-name="Path 159" d="M79.982,108.412c-.117-.049-6.774-3.036-7.553-2.778s-1.749,2.635-1.749,2.635l11.722,2.65a5.822,5.822,0,0,0-2.42-2.506" transform="translate(-57.161 -85.418)" fill="#1a1818"/>
      <path id="Path_160" data-name="Path 160" d="M163.451,273.75l-37.316,35.134c-.731.689-1.654.908-2.05.488l-1.26-1.338c-.4-.42-.121-1.328.61-2.017l37.316-35.133c.731-.689,1.654-.908,2.05-.488l1.26,1.338c.4.421.121,1.328-.61,2.017" transform="translate(-99.187 -218.507)" fill="#1a1818"/>
      <path id="Path_161" data-name="Path 161" d="M142.51,379.8l-16.375,15.417c-.731.689-1.654.908-2.05.488l-1.26-1.338c-.4-.42-.121-1.328.61-2.017l16.375-15.417Z" transform="translate(-99.187 -304.841)" fill="#1a1818"/>
      <path id="Path_162" data-name="Path 162" d="M285.792,59.722A29.249,29.249,0,1,0,334.27,30.329c-.15-.15-.3-.3-.459-.443a29.25,29.25,0,0,0-48.019,29.836m8.36-26.994a26.941,26.941,0,1,1,1.16,38.081,26.908,26.908,0,0,1-1.16-38.081" transform="translate(-230.105 -17.744)" fill="#1a1818"/>
      <path id="Path_164" data-name="Path 164" d="M74.206,214.971c-20.562-14.652-18.852-34.2-18.852-34.2,7.515,4.239,14.972,13.611,18.394,21.74.2,4.656.371,9.163.458,12.463" transform="translate(-44.738 -146.194)" fill="#1a1818"/>
      <path id="Path_165" data-name="Path 165" d="M249.759,317.85a5.614,5.614,0,0,0,2.626-1.622s.618.042-.1,1.361c-.06.11-.194.394-.295.594a.128.128,0,0,0,.108.184,13.689,13.689,0,0,1,3.29.069c.222.046.287.579.278.806a2.056,2.056,0,0,1-.433,1.4,7.182,7.182,0,0,1-2.6,1.361,7.854,7.854,0,0,1-4.02-.5l-1.316-.61.408-2.447.331.069c.525.11,1.176-.531,1.723-.665" transform="translate(-199.998 -255.746)" fill="#ffb27d"/>
      <path id="Path_166" data-name="Path 166" d="M60.069,133.331S41.594,136.849,65.5,163.6c3.824,4.279,24.485,9.85,24.485,9.85s2.1-1.783,1.039-3.227c0,0-14.225-10.33-17.355-11.972-1.408-.739-5.465-16.488-7.76-20.281a10.347,10.347,0,0,0-5.844-4.643" transform="translate(-43.072 -107.83)" fill="#453f3f"/>
      <path id="Path_167" data-name="Path 167" d="M275.036,166.467a9.4,9.4,0,0,0,.722-1.764,9.755,9.755,0,0,1,1.192-2.7c.126-.125.539.037.588.575a3.128,3.128,0,0,1-.3,1.169,13.158,13.158,0,0,0-.391,2.322c-.286.931-1.815.4-1.815.4" transform="translate(-222.432 -130.987)" fill="#ffb27d"/>
    </g>
  </g>
</svg>
