<svg xmlns="http://www.w3.org/2000/svg" width="300" height="132" viewBox="0 0 300 132">
  <g id="Export-Data-img" transform="translate(-671 -227)">
    <path id="Shape" d="M675.831,325.231H906.8s1.394-24.2-17.162-32.31-51.832-9.991-69.013-36.3-87.958-39.576-116.569-12.315-26.73,65.182-56.508,62.333-40.725,18.592-40.725,18.592Z" transform="translate(64.18 15)" fill="#f8f7f7"/>
    <path id="Box-icon" d="M29.2,5.4,27,2.8A1.879,1.879,0,0,0,25.3,2H6.7a2.56,2.56,0,0,0-1.9.8l-2,2.6a3.176,3.176,0,0,0-.8,2V26.8A3.138,3.138,0,0,0,5.1,30H26.9A3.116,3.116,0,0,0,30,26.9V7.4A3.176,3.176,0,0,0,29.2,5.4Zm-13.4,19L7.9,16.5a.3.3,0,0,1,.2-.5h4.8V13.2a.265.265,0,0,1,.3-.3h5.7a.265.265,0,0,1,.3.3V16H24a.3.3,0,0,1,.2.5l-7.9,7.9A.446.446,0,0,1,15.8,24.4ZM5.3,5.1h0A4.175,4.175,0,0,1,8.5,3.5H23.1a4.79,4.79,0,0,1,3.5,1.6H5.3Z" transform="translate(726 284)" fill="#d3d0d0"/>
    <path id="Box-icon-2" data-name="Box-icon" d="M21.429,4.429,19.857,2.571A1.342,1.342,0,0,0,18.643,2H5.357A1.829,1.829,0,0,0,4,2.571L2.571,4.429A2.268,2.268,0,0,0,2,5.857V19.714A2.242,2.242,0,0,0,4.214,22H19.786A2.225,2.225,0,0,0,22,19.786V5.857A2.268,2.268,0,0,0,21.429,4.429ZM11.857,18,6.214,12.357A.214.214,0,0,1,6.357,12H9.786V10A.189.189,0,0,1,10,9.786h4.071a.189.189,0,0,1,.214.214v2h3.429a.214.214,0,0,1,.143.357L12.214,18A.319.319,0,0,1,11.857,18ZM4.357,4.214h0A2.982,2.982,0,0,1,6.643,3.071H17.071a3.422,3.422,0,0,1,2.5,1.143H4.357Z" transform="translate(858 251)" fill="#d3d0d0"/>
    <path id="Box-icon-3" data-name="Box-icon" d="M16.571,3.821,15.393,2.429A1.007,1.007,0,0,0,14.482,2H4.518A1.372,1.372,0,0,0,3.5,2.429L2.429,3.821A1.7,1.7,0,0,0,2,4.893V15.286A1.681,1.681,0,0,0,3.661,17H15.339A1.669,1.669,0,0,0,17,15.339V4.893A1.7,1.7,0,0,0,16.571,3.821ZM9.393,14,5.161,9.768A.161.161,0,0,1,5.268,9.5H7.839V8A.142.142,0,0,1,8,7.839h3.054A.142.142,0,0,1,11.214,8V9.5h2.571a.161.161,0,0,1,.107.268L9.661,14A.239.239,0,0,1,9.393,14ZM3.768,3.661h0A2.237,2.237,0,0,1,5.482,2.8H13.3a2.566,2.566,0,0,1,1.875.857H3.768Z" transform="translate(782 225)" fill="#d3d0d0"/>
    <path id="Fil-icon" d="M73.727,15.545H15.545a3.636,3.636,0,0,1,0-7.273H37.364A7.3,7.3,0,0,0,30.091,1H8.273A7.3,7.3,0,0,0,1,8.273V66.455A14.545,14.545,0,0,0,15.545,81H66.455A14.545,14.545,0,0,0,81,66.455V22.818A7.3,7.3,0,0,0,73.727,15.545ZM15.545,48.273H30.091a3.636,3.636,0,0,1,0,7.273H15.545a3.636,3.636,0,0,1,0-7.273ZM48.273,70.091H15.545a3.636,3.636,0,1,1,0-7.273H48.273a3.636,3.636,0,1,1,0,7.273Z" transform="translate(780 278)" fill="#ba9950"/>
  </g>
</svg>
