<svg xmlns="http://www.w3.org/2000/svg" width="256" height="80.995" viewBox="0 0 256 80.995">
  <g id="no-courses-img" transform="translate(-223.5 -179.56)">
    <line id="Line_3" data-name="Line 3" x2="213" transform="translate(247.5 259.5)" fill="none" stroke="#f8f7f7" stroke-linecap="round" stroke-width="2"/>
    <line id="Line_4" data-name="Line 4" x2="15" transform="translate(224.5 259.5)" fill="none" stroke="#f8f7f7" stroke-linecap="round" stroke-width="2"/>
    <line id="Line_5" data-name="Line 5" x2="10" transform="translate(468.5 259.5)" fill="none" stroke="#f8f7f7" stroke-linecap="round" stroke-width="2"/>
    <path id="Path_77" data-name="Path 77" d="M18.979.608,71,25H-10Z" transform="translate(277 235.556)" fill="#f8f7f7"/>
    <path id="Path_80" data-name="Path 80" d="M45.164-16.5,71,25H0Z" transform="translate(285 235.556)" fill="#f8f7f7"/>
    <circle id="Ellipse_7" data-name="Ellipse 7" cx="16" cy="16" r="16" transform="translate(363 194)" fill="#f8f7f7"/>
    <path id="Path_78" data-name="Path 78" d="M43.2,7.815,71,25H0Z" transform="translate(357 235.556)" fill="#f8f7f7"/>
    <path id="Path_79" data-name="Path 79" d="M30.438-5.046,71,25H0Z" transform="translate(331 235.556)" fill="#f8f7f7"/>
    <path id="Icon" d="M11.367,46.444H53V7.556A5.556,5.556,0,0,0,47.444,2H11.333C7.983,2,3,4.219,3,10.333V49.222c0,6.114,4.983,8.333,8.333,8.333H53V52H11.367a2.778,2.778,0,1,1,0-5.556Zm5.522-33.333h25v5.556h-25Z" transform="translate(317.5 203)" fill="#ba9950"/>
    <path id="Path_81" data-name="Path 81" d="M269.919,212.348s2.731-3.6,10.017-1.416c1.492-1.77,3.8-5.054,8.569-3.767" transform="translate(17 8)" fill="none" stroke="#e5e0e0" stroke-linecap="round" stroke-width="2"/>
    <path id="Path_82" data-name="Path 82" d="M269.919,210.953s2.035-2.686,7.464-1.055c1.111-1.318,2.831-3.766,6.385-2.807" transform="matrix(0.914, 0.407, -0.407, 0.914, 229.013, -92.06)" fill="none" stroke="#e5e0e0" stroke-linecap="round" stroke-width="2"/>
    <path id="Path_83" data-name="Path 83" d="M269.919,210.091s1.605-2.119,5.887-.832c.877-1.04,2.233-2.97,5.036-2.214" transform="translate(106.062 -65.802) rotate(9)" fill="none" stroke="#e5e0e0" stroke-linecap="round" stroke-width="2"/>
  </g>
</svg>
