<svg xmlns="http://www.w3.org/2000/svg" width="351.787" height="183.26" viewBox="0 0 351.787 183.26">
  <g id="Visual" transform="translate(-653.948 -194.788)">
    <g id="Group_47" data-name="Group 47">
      <g id="Bg" transform="translate(747 288.953) rotate(-45)" fill="#ba9950" stroke="rgba(186,153,80,0.2)" stroke-width="10">
        <rect width="106" height="106" stroke="none"/>
        <rect x="-5" y="-5" width="116" height="116" fill="none"/>
      </g>
      <path id="Hand-icon" d="M43,45.714A11.429,11.429,0,0,1,31.571,57.143H14.429A11.429,11.429,0,0,1,3,45.686V11.429a2.857,2.857,0,0,1,5.714,0V28.571h2.857V5.714a2.857,2.857,0,1,1,5.714,0V28.571h2.857V2.857a2.857,2.857,0,0,1,5.714,0V28.571h2.857V5.714a2.857,2.857,0,0,1,5.714,0V42.857h2.857V25.714a2.857,2.857,0,0,1,2.857-2.857H43Z" transform="translate(799 260)" fill="#fff"/>
    </g>
    <g id="Group_46" data-name="Group 46">
      <g id="Bg-2" data-name="Bg" transform="translate(906.243 337.109) rotate(-45)" fill="#727272" stroke="rgba(211,211,211,0.2)" stroke-width="5" opacity="0.2">
        <rect width="32.117" height="32.117" stroke="none"/>
        <rect x="-2.5" y="-2.5" width="37.117" height="37.117" fill="none"/>
      </g>
      <path id="Hand-icon-2" data-name="Hand-icon" d="M15.12,13.851a3.463,3.463,0,0,1-3.463,3.463H6.463A3.463,3.463,0,0,1,3,13.843V3.463a.866.866,0,1,1,1.731,0V8.657H5.6V1.731a.866.866,0,1,1,1.731,0V8.657h.866V.866a.866.866,0,0,1,1.731,0V8.657h.866V1.731a.866.866,0,0,1,1.731,0V12.985h.866V7.791a.866.866,0,0,1,.866-.866h.866Z" transform="translate(919.908 328.336)" fill="#fff"/>
    </g>
    <g id="Group_44" data-name="Group 44">
      <g id="Bg-3" data-name="Bg" transform="translate(666.859 234.953) rotate(-45)" fill="#727272" stroke="rgba(211,211,211,0.2)" stroke-width="5" opacity="0.2">
        <rect width="46.802" height="46.802" stroke="none"/>
        <rect x="-2.5" y="-2.5" width="51.802" height="51.802" fill="none"/>
      </g>
      <path id="Hand-icon-3" data-name="Hand-icon" d="M20.661,20.184a5.046,5.046,0,0,1-5.046,5.046H8.046A5.046,5.046,0,0,1,3,20.171V5.046a1.262,1.262,0,1,1,2.523,0v7.569H6.785V2.523a1.262,1.262,0,1,1,2.523,0V12.615h1.262V1.262a1.262,1.262,0,0,1,2.523,0V12.615h1.262V2.523a1.262,1.262,0,0,1,2.523,0v16.4h1.261V11.354A1.262,1.262,0,0,1,19.4,10.092h1.262Z" transform="translate(688.144 222.169)" fill="#fff"/>
    </g>
    <g id="Group_43" data-name="Group 43">
      <g id="Bg-4" data-name="Bg" transform="translate(661.019 299.337) rotate(-45)" fill="#727272" stroke="rgba(211,211,211,0.2)" stroke-width="5" opacity="0.2">
        <rect width="21.302" height="21.302" stroke="none"/>
        <rect x="-2.5" y="-2.5" width="26.302" height="26.302" fill="none"/>
      </g>
      <path id="Hand-icon-4" data-name="Hand-icon" d="M11.038,9.187a2.3,2.3,0,0,1-2.3,2.3H5.3A2.3,2.3,0,0,1,3,9.181V2.3a.574.574,0,1,1,1.148,0V5.742h.574V1.148a.574.574,0,1,1,1.148,0V5.742h.574V.574a.574.574,0,0,1,1.148,0V5.742h.574V1.148a.574.574,0,0,1,1.148,0V8.612H9.89V5.167a.574.574,0,0,1,.574-.574h.574Z" transform="translate(669.072 293.519)" fill="#fff"/>
    </g>
    <g id="Group_45" data-name="Group 45">
      <g id="Bg-5" data-name="Bg" transform="translate(919.97 268.047) rotate(-45)" fill="#727272" stroke="rgba(211,211,211,0.2)" stroke-width="5" opacity="0.2">
        <rect width="55.645" height="55.645" stroke="none"/>
        <rect x="-2.5" y="-2.5" width="60.645" height="60.645" fill="none"/>
      </g>
      <path id="Hand-icon-5" data-name="Hand-icon" d="M24,24a6,6,0,0,1-6,6H9a6,6,0,0,1-6-6.014V6A1.5,1.5,0,1,1,6,6v9H7.5V3a1.5,1.5,0,1,1,3,0V15H12V1.5a1.5,1.5,0,0,1,3,0V15h1.5V3a1.5,1.5,0,0,1,3,0V22.5H21v-9A1.5,1.5,0,0,1,22.5,12H24Z" transform="translate(945.843 252.848)" fill="#fff"/>
    </g>
  </g>
</svg>
